# Blender 3.6.1
# www.blender.org
mtllib hxd1_h.mtl
o 立方体
v -0.500000 0.000001 1.500000
v -0.500000 0.000001 -1.500000
v -0.500000 2.673830 1.098917
v -0.500000 3.384311 1.098917
v -0.500000 3.384311 0.125595
v -0.500000 2.673830 0.125595
v 0.087957 3.384311 0.125595
v 0.087957 3.384311 1.098917
v 0.404284 2.673830 0.125595
v 0.404284 2.673830 1.098917
v -0.500000 3.384311 -0.125595
v -0.500000 3.384311 -1.098917
v -0.500000 2.673830 -1.098917
v -0.500000 2.673830 -0.125595
v 0.087957 3.384311 -0.125595
v 0.087957 3.384311 -1.098917
v 0.404284 2.673830 -1.098917
v 0.404284 2.673830 -0.125595
v 0.388004 1.644810 -1.500000
v 0.435040 1.622239 -1.446622
v 0.388004 1.644810 1.500000
v 0.435040 1.622239 1.446622
v -0.026592 0.000001 -1.500000
v 0.032680 0.000001 -1.446622
v 0.032680 0.000001 1.446622
v -0.026592 0.000001 1.500000
v 0.322974 1.234230 -1.500000
v 0.365489 1.183105 -1.446622
v 0.243907 0.884762 -1.500000
v 0.283212 0.819454 -1.446622
v 0.243907 0.884762 1.500000
v 0.283212 0.819454 1.446622
v 0.322974 1.234230 1.500000
v 0.365489 1.183105 1.446622
v 0.500000 1.591067 -1.226930
v 0.489231 1.596235 -1.298157
v 0.489231 1.596235 1.298157
v 0.500000 1.591067 1.226930
v 0.100967 0.000001 -1.298157
v 0.114537 0.000001 -1.226930
v 0.114537 0.000001 1.226930
v 0.100967 0.000001 1.298157
v 0.414469 1.124203 -1.298157
v 0.424202 1.112498 -1.226930
v 0.337494 0.729261 -1.226930
v 0.328496 0.744213 -1.298157
v 0.328496 0.744213 1.298157
v 0.337494 0.729261 1.226930
v 0.424202 1.112498 1.226930
v 0.414469 1.124203 1.298157
v -0.500000 3.675176 1.288397
v -0.500000 3.891631 -1.213872
v -0.500000 3.950848 1.193476
v -0.500000 4.000001 1.124565
v -0.500000 3.008650 1.500000
v -0.500000 3.109789 1.483075
v 0.064663 3.109789 1.483075
v 0.087337 3.008650 1.500000
v -0.220184 4.000001 1.124565
v -0.500000 4.000001 -1.124572
v -0.500000 3.950848 -1.193482
v -0.500000 3.109809 -1.483075
v -0.500000 3.008670 -1.500000
v 0.087329 3.008670 -1.500000
v 0.064654 3.109809 -1.483075
v -0.220184 4.000001 -1.124572
v -0.070607 3.639724 1.300604
v -0.011178 3.570719 1.298157
v 0.099438 3.139829 1.446622
v 0.064693 3.112936 1.481991
v -0.145865 3.844677 1.230033
v -0.086829 3.776887 1.226930
v -0.183351 3.928871 1.201043
v -0.160824 3.943084 1.169415
v -0.170059 3.899019 1.211322
v -0.124072 3.860538 1.197933
v -0.070616 3.639744 -1.300604
v -0.011459 3.571348 -1.298157
v 0.064684 3.112956 -1.481991
v 0.099168 3.140436 -1.446622
v -0.145874 3.844697 -1.230033
v -0.087147 3.777602 -1.226930
v -0.183351 3.928871 -1.201050
v -0.160824 3.943084 -1.169808
v -0.206270 3.950848 1.193476
v -0.195306 3.976147 1.158007
v -0.194940 3.975796 -1.158507
v -0.206269 3.950847 -1.193482
v 0.350169 2.418320 -1.500000
v 0.388004 2.233561 -1.500000
v 0.397250 2.470932 -1.446622
v 0.435040 2.286782 -1.446622
v 0.388004 2.233561 1.500000
v 0.350169 2.418320 1.500000
v 0.435040 2.286782 1.446622
v 0.397250 2.470932 1.446622
v 0.500000 2.360518 -1.226930
v 0.462311 2.543498 -1.226930
v 0.500000 2.458848 -1.136509
v 0.489231 2.348184 -1.298157
v 0.451512 2.531498 -1.298157
v 0.451512 2.531498 1.298157
v 0.489231 2.348184 1.298157
v 0.462311 2.543498 1.226930
v 0.500000 2.360518 1.226930
v 0.500000 2.458848 1.136509
v 0.467693 2.531410 1.183722
vn -1.0000 -0.0000 -0.0000
vn 0.9394 -0.0000 0.3429
vn 0.8172 0.3638 0.4471
vn -0.0000 -1.0000 -0.0000
vn -0.0000 0.3256 0.9455
vn 0.9208 -0.1458 0.3617
vn 0.8172 0.3638 -0.4471
vn 0.9135 0.4067 -0.0000
vn -0.0000 -0.0000 1.0000
vn -0.0000 -0.0000 -1.0000
vn -0.0000 1.0000 -0.0000
vn 0.9027 -0.2042 -0.3788
vn 0.9027 -0.2042 0.3788
vn 0.9888 -0.0000 -0.1495
vn -0.0000 0.8141 0.5807
vn 0.9394 -0.0000 -0.3429
vn 0.9208 -0.1458 -0.3617
vn 0.9877 -0.1564 -0.0000
vn 0.9753 -0.2207 -0.0000
vn 0.8754 -0.2676 0.4026
vn 0.8754 -0.2676 -0.4026
vn 0.9563 -0.2924 -0.0000
vn -0.0000 0.3256 -0.9455
vn 0.6938 -0.1570 -0.7029
vn 0.6938 -0.1570 0.7029
vn 0.6556 -0.2004 0.7280
vn 0.6556 -0.2004 -0.7280
vn 0.7209 -0.1142 -0.6836
vn 0.7209 -0.1142 0.6836
vn 0.5829 0.2595 0.7700
vn 0.6921 0.7218 -0.0000
vn 0.8946 0.3983 -0.2027
vn 0.8946 0.3983 0.2027
vn 0.9616 -0.2176 -0.1672
vn 0.9616 -0.2176 0.1672
vn 0.9408 -0.2876 0.1792
vn 0.9408 -0.2876 -0.1792
vn 0.9752 -0.1545 -0.1586
vn 0.9752 -0.1545 0.1586
vn 1.0000 -0.0000 -0.0000
vn 0.5829 0.2595 -0.7700
vn -0.0000 0.1650 0.9863
vn -0.0000 0.8141 -0.5807
vn -0.0000 0.1650 -0.9863
vn 0.7503 -0.0000 0.6611
vn 0.5942 0.4854 0.6413
vn 0.4873 0.3936 -0.7795
vn 0.5442 0.4453 -0.7111
vn 0.4891 0.3936 0.7783
vn 0.5465 0.4455 0.7091
vn 0.5886 0.4853 -0.6466
vn 0.5923 0.4864 0.6424
vn 0.4354 0.6636 0.6083
vn 0.4322 0.6617 -0.6127
vn 0.9888 -0.0000 0.1495
vn 0.9567 0.1970 -0.2143
vn 0.9773 0.2013 0.0654
vn 0.9635 0.1982 0.1800
vn 0.6712 0.1374 -0.7285
vn 0.6712 0.1374 0.7285
vn 0.9635 0.1985 -0.1795
vn 0.8964 0.1840 -0.4033
vn 0.8964 0.1840 0.4033
vn 0.7503 -0.0000 -0.6611
vn -0.6247 -0.6247 0.4685
vn 0.0001 0.3256 0.9455
vn 0.5830 0.2595 0.7699
vn 0.5829 0.2596 -0.7700
vn -0.0000 0.1651 -0.9863
vn 0.5934 0.4859 0.6417
vn 0.4864 0.3936 -0.7800
vn 0.5458 0.4449 -0.7100
vn 0.4882 0.3937 0.7789
vn 0.5483 0.4451 0.7080
vn 0.5897 0.4849 -0.6458
vn 0.5931 0.4853 0.6424
vn 0.4354 0.6638 0.6081
vn 0.4321 0.6621 -0.6123
vn 0.9332 0.2433 0.2646
vn 0.9635 0.1985 0.1795
vn 0.6715 0.1378 -0.7281
vn 0.6715 0.1378 0.7281
vn 0.9635 0.1982 -0.1800
vn 0.8965 0.1845 -0.4029
vn 0.8965 0.1845 0.4029
vt 0.542114 0.114534
vt 0.586519 0.135466
vt 0.542114 0.135466
vt 0.517924 0.761792
vt 0.474765 0.735872
vt 0.521761 0.735872
vt 0.571239 0.850141
vt 0.533219 0.762122
vt 0.598170 0.877795
vt 0.243352 0.750000
vt 0.258170 0.504448
vt 0.278634 0.522756
vt 0.442984 0.794840
vt 0.540729 0.768700
vt 0.477489 0.782957
vt 0.448944 0.783628
vt 0.474765 0.752692
vt 0.476390 0.766240
vt 0.533219 0.487878
vt 0.571277 0.399792
vt 0.598209 0.372135
vt 0.210137 0.658385
vt 0.224075 0.591653
vt 0.210137 0.591654
vt 0.375000 0.250000
vt 0.375000 0.000000
vt 0.424325 0.250000
vt 0.467483 0.250000
vt 0.375000 0.750000
vt 0.375000 0.500000
vt 0.467483 0.750000
vt 0.401106 0.750000
vt 0.470914 0.250000
vt 0.432309 0.250000
vt 0.470914 0.750000
vt 0.411539 0.750000
vt 0.278080 0.591654
vt 0.280166 0.678577
vt 0.285183 0.554714
vt 0.426216 0.445803
vt 0.445263 0.478617
vt 0.421513 0.457124
vt 0.426216 0.804197
vt 0.445263 0.771383
vt 0.474442 0.522756
vt 0.521761 0.514128
vt 0.522532 0.522756
vt 0.812937 0.723046
vt 0.805046 0.718714
vt 0.875000 0.718714
vt 0.474765 0.514128
vt 0.517924 0.488208
vt 0.542114 0.216576
vt 0.448944 0.466372
vt 0.474765 0.497308
vt 0.277054 0.550988
vt 0.165181 0.592093
vt 0.277054 0.592093
vt 0.277054 0.609849
vt 0.375000 0.866830
vt 0.421513 0.792876
vt 0.375000 0.383170
vt 0.375000 0.400242
vt 0.825250 0.527565
vt 0.690561 0.611284
vt 0.825250 0.611284
vt 0.540351 0.481302
vt 0.447428 0.421787
vt 0.440361 0.452745
vt 0.514598 0.472001
vt 0.375000 0.368352
vt 0.563042 0.250000
vt 0.452139 0.794256
vt 0.563040 0.853166
vt 0.375000 1.000000
vt 0.430298 0.435977
vt 0.430298 0.814023
vt 0.375000 0.881648
vt 0.452139 0.455744
vt 0.476390 0.483760
vt 0.477801 0.777999
vt 0.604698 0.017634
vt 0.625000 0.031286
vt 0.621928 0.224457
vt 0.529433 0.775688
vt 0.569558 0.858827
vt 0.805046 0.531286
vt 0.801482 0.721501
vt 0.796541 0.527516
vt 0.285183 0.670626
vt 0.287498 0.572197
vt 0.285183 0.554714
vt 0.146714 0.572256
vt 0.149029 0.670626
vt 0.149029 0.554781
vt 0.151427 0.671761
vt 0.156132 0.591654
vt 0.149029 0.554781
vt 0.278957 0.609774
vt 0.278957 0.592168
vt 0.163278 0.609774
vt 0.165181 0.609849
vt 0.827540 0.527565
vt 0.688271 0.527565
vt 0.688271 0.611114
vt 0.278957 0.591944
vt 0.278957 0.551400
vt 0.165181 0.550988
vt 0.163278 0.591944
vt 0.980930 0.827473
vt 0.057985 0.926444
vt 0.022055 0.070230
vt 0.805046 0.531286
vt 0.875000 0.531286
vt 0.526145 0.462542
vt 0.569363 0.391164
vt 0.571277 0.399792
vt 0.563041 1.000000
vt 0.566290 0.858952
vt 0.566290 1.000000
vt 0.812937 0.526954
vt 0.875000 0.526954
vt 0.566291 0.391046
vt 0.566291 0.250000
vt 0.514597 0.777999
vt 0.476390 0.761792
vt 0.150082 0.542394
vt 0.152221 0.539172
vt 0.150652 0.539590
vt 0.575980 0.391417
vt 0.602855 0.363807
vt 0.287485 0.565009
vt 0.575978 0.858581
vt 0.602854 0.886191
vt 0.146727 0.565010
vt 0.285169 0.547496
vt 0.282014 0.539172
vt 0.150638 0.546925
vt 0.149044 0.547498
vt 0.796541 0.722451
vt 0.797701 0.724456
vt 0.797056 0.724580
vt 0.797701 0.525543
vt 0.797056 0.525419
vt 0.474442 0.727244
vt 0.285698 0.678408
vt 0.285183 0.678577
vt 0.148514 0.678408
vt 0.149029 0.671761
vt 0.146714 0.669863
vt 0.146714 0.677820
vt 0.521968 0.477582
vt 0.517924 0.488208
vt 0.521968 0.772418
vt 0.287498 0.669863
vt 0.524540 0.491017
vt 0.524540 0.758983
vt 0.476390 0.488208
vt 0.477801 0.472001
vt 0.586519 0.114534
vt 0.278634 0.727244
vt 0.275242 0.733180
vt 0.258170 0.745552
vt 0.125000 0.750000
vt 0.125000 0.500000
vt 0.243352 0.500000
vt 0.275242 0.516820
vt 0.453031 0.790889
vt 0.446546 0.793438
vt 0.440361 0.797255
vt 0.440361 0.828213
vt 0.473258 0.828213
vt 0.540729 0.828213
vt 0.540353 0.768697
vt 0.529433 0.474312
vt 0.224075 0.658385
vt 0.285183 0.670626
vt 0.154046 0.678577
vt 0.156132 0.658385
vt 0.278080 0.658385
vt 0.875000 0.723046
vt 0.805046 0.720816
vt 0.569362 0.001410
vt 0.586519 0.033424
vt 0.542114 0.033424
vt 0.563041 0.000000
vt 0.618227 0.226156
vt 0.569363 0.248590
vt 0.586519 0.216576
vt 0.375000 0.849758
vt 0.690561 0.527565
vt 0.442984 0.455161
vt 0.453029 0.459110
vt 0.477487 0.467042
vt 0.540726 0.481299
vt 0.540726 0.421787
vt 0.440361 0.421787
vt 0.563042 0.396832
vt 0.526145 0.462542
vt 0.526145 0.787458
vt 0.621928 0.025544
vt 0.625000 0.218714
vt 0.571239 0.850141
vt 0.569362 0.858834
vt 0.801429 0.528458
vt 0.805046 0.718714
vt 0.149029 0.670626
vt 0.163278 0.592169
vt 0.827540 0.611114
vt 0.163278 0.551400
vt 0.980383 0.068213
vt 0.945692 0.924562
vt 0.022602 0.829491
vt 0.529433 0.474312
vt 0.569560 0.391171
vt 0.805046 0.529152
vt 0.285192 0.547631
vt 0.149021 0.547633
vt 0.283561 0.539590
vt 0.522532 0.727244
vt 0.149029 0.678577
vt 0.524128 0.488208
vt 0.524128 0.761792
vt 0.287498 0.677820
vt 0.527924 0.514128
vt 0.527924 0.735872
s 0
usemtl hx
f 97/110/40 106/111/40 38/112/40
f 38/112/40 35/211/40 97/110/40
f 97/110/40 99/212/40 106/111/40
f 106/111/40 105/213/40 38/112/40
usemtl white.001
f 6/1/1 11/2/1 14/3/1
f 69/7/3 102/8/3 68/9/3
f 73/13/5 57/14/5 67/15/5
f 101/19/7 80/20/7 78/21/7
f 9/22/8 15/23/8 7/24/8
f 7/25/9 6/26/9 9/26/9
f 7/27/4 4/28/4 5/28/4
f 3/29/10 8/30/10 10/29/10
f 3/31/11 9/32/11 6/31/11
f 13/26/9 16/25/9 12/25/9
f 11/33/4 16/34/4 15/34/4
f 14/29/10 15/30/10 18/29/10
f 14/35/11 17/36/11 13/35/11
f 16/37/8 99/38/8 82/39/8
f 85/48/15 59/49/15 54/50/15
f 14/3/1 13/53/1 1/26/1
f 79/67/23 52/68/23 88/69/23
f 51/82/1 54/83/1 61/84/1
f 96/85/30 70/86/30 58/74/30
f 66/87/31 86/88/31 84/89/31
f 98/90/32 78/91/32 82/92/32
f 68/93/33 104/94/33 72/95/33
f 107/96/8 8/97/8 72/98/8
f 54/50/11 66/113/11 60/114/11
f 89/115/41 65/116/41 80/117/41
f 55/118/42 57/119/42 56/120/42
f 66/113/43 88/121/43 61/122/43
f 65/123/44 63/72/44 62/124/44
f 75/127/46 74/128/46 73/129/46
f 78/21/47 79/130/47 77/131/47
f 77/132/48 82/92/48 78/91/48
f 70/133/49 68/9/49 67/134/49
f 72/95/50 67/135/50 68/93/50
f 81/136/51 84/137/51 82/39/51
f 76/138/52 71/139/52 72/98/52
f 74/140/53 85/141/53 73/142/53
f 88/143/54 84/89/54 83/144/54
f 6/1/1 5/160/1 11/2/1
f 69/7/3 96/85/3 102/8/3
f 71/168/65 75/169/65 73/13/65
f 73/13/5 85/170/5 53/171/5
f 51/172/5 56/173/5 57/14/5
f 73/13/5 53/171/5 51/172/5
f 67/15/66 71/168/66 73/13/66
f 57/14/5 70/174/5 67/15/5
f 73/13/5 51/172/5 57/14/5
f 101/19/7 91/175/7 80/20/7
f 9/22/8 18/176/8 15/23/8
f 7/25/9 5/25/9 6/26/9
f 7/27/4 8/27/4 4/28/4
f 3/29/10 4/30/10 8/30/10
f 3/31/11 10/32/11 9/32/11
f 13/26/9 17/26/9 16/25/9
f 11/33/4 12/33/4 16/34/4
f 14/29/10 11/30/10 15/30/10
f 14/35/11 18/36/11 17/36/11
f 74/128/8 76/138/8 8/97/8
f 74/128/8 8/97/8 7/24/8
f 82/39/8 84/137/8 74/128/8
f 99/38/8 98/177/8 82/39/8
f 107/96/8 106/178/8 99/38/8
f 9/22/8 10/179/8 107/96/8
f 18/176/8 9/22/8 107/96/8
f 82/39/8 74/128/8 7/24/8
f 82/39/8 7/24/8 15/23/8
f 18/176/8 107/96/8 99/38/8
f 17/180/8 18/176/8 99/38/8
f 82/39/8 15/23/8 16/37/8
f 16/37/8 17/180/8 99/38/8
f 54/50/15 53/181/15 85/48/15
f 85/48/15 86/182/15 59/49/15
f 56/183/1 51/82/1 4/184/1
f 56/183/1 4/184/1 3/185/1
f 1/26/1 55/186/1 56/183/1
f 63/72/1 2/25/1 1/26/1
f 52/187/1 62/188/1 63/72/1
f 11/2/1 5/160/1 52/187/1
f 12/189/1 11/2/1 52/187/1
f 1/26/1 56/183/1 3/185/1
f 1/26/1 3/185/1 6/1/1
f 12/189/1 52/187/1 63/72/1
f 13/53/1 12/189/1 63/72/1
f 1/26/1 6/1/1 14/3/1
f 13/53/1 63/72/1 1/26/1
f 88/69/23 83/192/23 81/193/23
f 81/193/23 77/194/23 79/67/23
f 79/67/23 65/195/23 62/196/23
f 52/68/23 61/197/23 88/69/23
f 79/67/23 62/196/23 52/68/23
f 88/69/23 81/193/23 79/67/23
f 61/84/1 52/187/1 5/160/1
f 5/160/1 4/184/1 51/82/1
f 51/82/1 53/201/1 54/83/1
f 54/83/1 60/202/1 61/84/1
f 61/84/1 5/160/1 51/82/1
f 58/74/30 94/200/30 96/85/30
f 96/85/30 69/203/30 70/86/30
f 70/86/67 57/204/67 58/74/67
f 84/89/31 87/205/31 66/87/31
f 66/87/31 59/206/31 86/88/31
f 86/88/31 74/140/31 84/89/31
f 98/90/32 101/155/32 78/91/32
f 68/93/33 102/150/33 104/94/33
f 72/98/8 104/207/8 107/96/8
f 107/96/8 10/179/8 8/97/8
f 8/97/8 76/138/8 72/98/8
f 54/50/11 59/49/11 66/113/11
f 80/117/41 91/214/41 89/115/41
f 89/115/41 64/198/41 65/116/41
f 65/116/68 79/215/68 80/117/68
f 55/118/42 58/74/42 57/119/42
f 61/122/43 60/114/43 66/113/43
f 66/113/43 87/216/43 88/121/43
f 65/123/69 64/198/69 63/72/69
f 75/127/70 76/138/70 74/128/70
f 78/21/71 80/20/71 79/130/71
f 77/132/72 81/217/72 82/92/72
f 70/133/73 69/7/73 68/9/73
f 72/95/74 71/218/74 67/135/74
f 81/136/75 83/219/75 84/137/75
f 76/138/76 75/127/76 71/139/76
f 74/140/77 86/88/77 85/141/77
f 88/143/78 87/205/78 84/89/78
usemtl blue.001
f 95/4/2 37/5/2 103/6/2
f 26/10/4 24/11/4 40/12/4
f 34/16/6 37/17/6 22/18/6
f 30/40/12 43/41/12 46/42/12
f 32/43/13 50/44/13 34/16/13
f 35/45/14 100/46/14 97/47/14
f 36/51/16 92/52/16 100/46/16
f 28/54/17 36/55/17 43/41/17
f 35/56/18 49/57/18 44/58/18
f 49/57/19 45/59/19 44/58/19
f 25/60/20 47/61/20 32/43/20
f 24/62/21 46/42/21 39/63/21
f 41/64/22 45/65/22 48/66/22
f 90/70/10 23/71/10 63/72/10
f 33/73/9 58/74/9 1/75/9
f 29/76/24 28/54/24 30/40/24
f 31/77/25 34/16/25 33/73/25
f 26/78/26 32/43/26 31/77/26
f 23/71/27 30/40/27 24/62/27
f 27/79/28 20/80/28 28/54/28
f 33/73/29 22/18/29 21/81/29
f 44/58/34 46/99/34 43/100/34
f 49/57/35 47/101/35 48/102/35
f 48/66/36 42/103/36 41/64/36
f 45/65/37 39/104/37 46/105/37
f 35/56/38 43/106/38 36/107/38
f 38/108/39 50/109/39 49/57/39
f 93/125/45 22/126/45 95/4/45
f 38/145/55 103/6/55 37/5/55
f 97/146/56 98/90/56 99/147/56
f 105/148/57 107/149/57 104/94/57
f 105/148/58 102/150/58 103/151/58
f 89/152/59 92/153/59 90/70/59
f 95/4/60 94/154/60 93/125/60
f 97/146/61 101/155/61 98/90/61
f 91/156/62 100/46/62 92/52/62
f 103/6/63 96/157/63 95/4/63
f 90/70/64 20/158/64 19/159/64
f 95/4/2 22/126/2 37/5/2
f 40/12/4 41/161/4 42/162/4
f 42/162/4 25/163/4 26/10/4
f 26/10/4 1/164/4 2/165/4
f 2/165/4 23/166/4 24/11/4
f 24/11/4 39/167/4 40/12/4
f 40/12/4 42/162/4 26/10/4
f 26/10/4 2/165/4 24/11/4
f 34/16/6 50/44/6 37/17/6
f 30/40/12 28/54/12 43/41/12
f 32/43/13 47/61/13 50/44/13
f 35/45/14 36/51/14 100/46/14
f 36/51/16 20/158/16 92/52/16
f 28/54/17 20/80/17 36/55/17
f 35/56/18 38/108/18 49/57/18
f 49/57/19 48/102/19 45/59/19
f 25/60/20 42/190/20 47/61/20
f 24/62/21 30/40/21 46/42/21
f 41/64/22 40/191/22 45/65/22
f 64/198/10 89/199/10 90/70/10
f 90/70/10 19/159/10 27/79/10
f 27/79/10 29/76/10 23/71/10
f 23/71/10 2/25/10 63/72/10
f 63/72/10 64/198/10 90/70/10
f 90/70/10 27/79/10 23/71/10
f 26/78/9 31/77/9 33/73/9
f 33/73/9 21/81/9 93/125/9
f 93/125/9 94/200/9 58/74/9
f 58/74/9 55/118/9 1/75/9
f 1/75/9 26/78/9 33/73/9
f 33/73/9 93/125/9 58/74/9
f 29/76/24 27/79/24 28/54/24
f 31/77/25 32/43/25 34/16/25
f 26/78/26 25/60/26 32/43/26
f 23/71/27 29/76/27 30/40/27
f 27/79/28 19/159/28 20/80/28
f 33/73/29 34/16/29 22/18/29
f 44/58/34 45/59/34 46/99/34
f 49/57/35 50/208/35 47/101/35
f 48/66/36 47/209/36 42/103/36
f 45/65/37 40/191/37 39/104/37
f 35/56/38 44/58/38 43/106/38
f 38/108/39 37/210/39 50/109/39
f 93/125/45 21/81/45 22/126/45
f 38/145/55 105/220/55 103/6/55
f 105/148/79 106/221/79 107/149/79
f 105/148/80 104/94/80 102/150/80
f 89/152/81 91/222/81 92/153/81
f 95/4/82 96/223/82 94/154/82
f 97/146/83 100/224/83 101/155/83
f 91/156/84 101/225/84 100/46/84
f 103/6/85 102/226/85 96/157/85
f 90/70/64 92/153/64 20/158/64
